<svg id="_002-facebook-logo" data-name="002-facebook-logo" xmlns="http://www.w3.org/2000/svg" width="11.71" height="21.659" viewBox="0 0 11.71 21.659">
  <path id="Path_70" data-name="Path 70" d="M33.346,0,30.537,0c-3.156,0-5.195,2.092-5.195,5.33V7.788H22.519a.442.442,0,0,0-.442.442v3.561a.442.442,0,0,0,.442.442h2.824v8.985a.441.441,0,0,0,.442.442h3.685a.442.442,0,0,0,.442-.442V12.232h3.3a.441.441,0,0,0,.442-.442V8.23a.442.442,0,0,0-.442-.442h-3.3V5.7c0-1,.239-1.51,1.543-1.51h1.892a.442.442,0,0,0,.441-.442V.446A.442.442,0,0,0,33.346,0Z" transform="translate(-22.077)" fill="#c5c5c5"/>
</svg>
