<svg id="instagram_1_" data-name="instagram (1)" xmlns="http://www.w3.org/2000/svg" width="21.876" height="21.876" viewBox="0 0 21.876 21.876">
  <path id="Path_74" data-name="Path 74" d="M15.359,0H6.517A6.524,6.524,0,0,0,0,6.517v8.842a6.524,6.524,0,0,0,6.517,6.517h8.842a6.524,6.524,0,0,0,6.517-6.517V6.517A6.524,6.524,0,0,0,15.359,0Zm4.316,15.359a4.316,4.316,0,0,1-4.316,4.316H6.517A4.316,4.316,0,0,1,2.2,15.359V6.517A4.316,4.316,0,0,1,6.517,2.2h8.842a4.316,4.316,0,0,1,4.316,4.316v8.842Z" fill="#c5c5c5"/>
  <path id="Path_75" data-name="Path 75" d="M138.658,133a5.658,5.658,0,1,0,5.658,5.658A5.664,5.664,0,0,0,138.658,133Zm0,9.115a3.457,3.457,0,1,1,3.457-3.457A3.457,3.457,0,0,1,138.658,142.115Z" transform="translate(-127.72 -127.72)" fill="#c5c5c5"/>
  <ellipse id="Ellipse_5" data-name="Ellipse 5" cx="1.356" cy="1.356" rx="1.356" ry="1.356" transform="translate(15.251 3.967)" fill="#c5c5c5"/>
</svg>
