<svg id="_004-linkedin-logo" data-name="004-linkedin-logo" xmlns="http://www.w3.org/2000/svg" width="19.487" height="18.621" viewBox="0 0 19.487 18.621">
  <path id="LinkedIn" d="M19.487,20.975v7.2H15.311V21.457c0-1.689-.6-2.841-2.116-2.841a2.285,2.285,0,0,0-2.143,1.528,2.858,2.858,0,0,0-.139,1.018v7.017H6.735s.056-11.385,0-12.564h4.178V17.4c-.008.013-.019.028-.027.041h.027V17.4a4.148,4.148,0,0,1,3.765-2.076C17.427,15.319,19.487,17.115,19.487,20.975ZM2.364,9.558A2.177,2.177,0,1,0,2.309,13.9h.028a2.178,2.178,0,1,0,.028-4.342ZM.248,28.179H4.425V15.615H.248Z" transform="translate(0 -9.558)" fill="#c5c5c5"/>
</svg>
