<svg xmlns="http://www.w3.org/2000/svg" width="101.474" height="50.478" viewBox="0 0 101.474 50.478">
  <g id="Group_342" data-name="Group 342" transform="translate(-196)">
    <path id="Path_212" data-name="Path 212" d="M214.476,322.466a1.107,1.107,0,0,0-.18-.18l-.031-.025-.031-.025-.031-.025-.031-.025-.031-.025-.031-.025-.031-.025-.031-.025-.031-.025-.031-.025-.031-.025-.031-.025-.031-.025-.031-.025-.031-.025-.031-.025-.031-.025-.031-.025-.031-.025-.031-.025-.031-.025-.031-.025-.031-.025-.031-.025-.031-.025-.031-.025-.031-.025-.031-.025-.031-.025-.031-.025-.031-.025-.031-.025-.031-.025-.031-.025-.031-.025-.031-.025-.031-.025-.031-.025-.031-.025-.031-.025-.031-.025-.031-.025-.031-.025-.031-.025-.031-.025-.031-.025-.031-.025-.031-.025-.031-.025-.031-.025-.031-.025-.031-.025-.031-.025-.031-.025-.031-.025-.031-.025-.031-.025-.031-.025-.031-.025-.031-.025-.031-.025-.031-.025-.031-.025-.031-.025-.031-.025-.031-.025-.031-.025-.031-.025-.031-.025-.031-.025-.031-.025-.031-.025L212,320.45l-.031-.025-.031-.025-.031-.025-.031-.025-.031-.025-.031-.025-.031-.025-.031-.025-.031-.025-.031-.025-.031-.025-.031-.025-.031-.025-.031-.025-.031-.025-.031-.025-.031-.025a1.144,1.144,0,0,0-.618-.272l-8.923-1.035a1.2,1.2,0,0,0-.133-.008,1.147,1.147,0,0,0-1.138,1.016l-1.166,10.045c-.038.326-.073.65-.108.972a.214.214,0,0,0-.018-.014l-.031-.025-.031-.025-.031-.025-.031-.025-.031-.025-.031-.025-.031-.025-.031-.025-.031-.025-.031-.025-.031-.025-.031-.025-.031-.025-.031-.025-.031-.025-.031-.025-.031-.025-.031-.025-.031-.025-.031-.025-.031-.025-.031-.025-.031-.025-.031-.025-.031-.025-.031-.025-.031-.025-.031-.025L198.45,330l-.031-.025-.031-.025-.031-.025-.031-.025-.031-.025-.031-.025-.031-.025-.031-.025-.031-.025-.031-.025-.031-.025-.031-.025-.031-.025-.031-.025-.031-.025-.031-.025-.031-.025-.031-.025-.031-.025-.031-.025-.031-.025-.031-.025-.031-.025-.031-.025-.031-.025-.031-.025-.031-.025-.031-.025-.031-.025-.031-.025-.031-.025-.031-.025-.031-.025-.031-.025-.031-.025-.031-.025-.031-.025-.031-.025-.031-.025-.031-.025-.031-.025-.031-.025-.031-.025-.031-.025-.031-.025L197,328.84l-.031-.025a9.04,9.04,0,0,0-2.385-1.421,13.478,13.478,0,0,0-4.945-.863v-7.636a1.149,1.149,0,0,0-.4-.874c-.008-.008-.016-.013-.025-.02l-.006-.005c-.008-.008-.016-.013-.025-.02l-.006-.005-.025-.02-.006-.005c-.008-.008-.016-.013-.025-.02l-.006-.005c-.008-.008-.016-.013-.025-.02l-.006-.005c-.008-.008-.016-.013-.025-.02l-.006-.005c-.008-.008-.016-.013-.025-.02l-.006-.005c-.008-.008-.016-.013-.025-.02l-.006-.005-.025-.02-.006,0c-.008-.008-.016-.013-.025-.02l-.006-.005c-.008-.008-.016-.013-.025-.02l-.006-.005c-.008-.008-.016-.013-.025-.02l-.006-.005c-.008-.008-.016-.013-.025-.02l-.006-.005-.025-.02-.006-.005c-.008-.008-.016-.013-.025-.02l-.006-.005c-.008-.008-.016-.013-.025-.02l-.006-.005c-.008-.008-.016-.013-.025-.02l-.006-.005c-.008-.008-.016-.013-.025-.02l-.006-.005-.025-.02-.006-.005c-.008-.008-.016-.013-.025-.02l-.006-.005c-.008-.008-.016-.013-.025-.02l-.006-.005c-.008-.008-.016-.013-.025-.02l-.006-.005c-.008-.008-.016-.013-.025-.02l-.006-.005-.025-.02-.006-.005c-.008-.008-.016-.013-.025-.02l-.006-.005-.025-.02-.006-.005c-.008-.008-.016-.013-.025-.02l-.006-.005-.025-.02-.006-.005-.025-.02-.006-.005c-.008-.008-.016-.013-.025-.02l-.006-.005-.025-.02-.006-.005c-.008-.008-.016-.013-.025-.02l-.006,0-.025-.02-.006-.005c-.008-.008-.016-.013-.025-.02l-.006-.005c-.008-.008-.016-.013-.025-.02l-.006-.005-.025-.02-.006-.005c-.008-.008-.016-.013-.025-.02l-.006-.005-.025-.02-.006-.005c-.008-.008-.016-.013-.025-.02l-.006-.005-.025-.02-.006-.005c-.008-.008-.016-.013-.025-.02l-.006-.005c-.008-.008-.016-.013-.025-.02l-.006-.005-.025-.02-.006-.005c-.008-.008-.016-.013-.025-.02l-.006-.005-.025-.02-.006-.005c-.008-.008-.016-.013-.025-.02l-.006-.005c-.008-.008-.016-.013-.025-.02l-.006-.005c-.008-.008-.016-.013-.025-.02l-.006-.005-.025-.02-.006-.005-.025-.02-.006-.005c-.008-.008-.016-.013-.025-.02l-.006-.005c-.008-.008-.016-.013-.025-.02l-.006-.005c-.008-.008-.016-.013-.025-.02l-.006-.005c-.008-.008-.016-.013-.025-.02l-.006-.005c-.008-.008-.016-.013-.025-.02l-.006-.005-.025-.02-.006-.005c-.008-.008-.016-.013-.025-.02l-.006-.005c-.008-.008-.016-.013-.025-.02l-.006-.005c-.008-.008-.016-.013-.025-.02l-.006-.005c-.008-.008-.016-.013-.025-.02l-.006-.005-.025-.02-.006-.005c-.008-.008-.016-.013-.025-.02l-.006-.005-.025-.02-.006-.005c-.008-.008-.016-.013-.025-.02l-.006-.005c-.008-.008-.016-.013-.025-.02l-.006-.005-.025-.02-.006-.005c-.008-.008-.016-.013-.025-.02l-.006-.005-.025-.02-.006-.005c-.008-.008-.016-.013-.025-.02l-.006-.005-.025-.02-.006-.005-.025-.02-.006-.005c-.008-.008-.016-.013-.025-.02l-.006-.005c-.008-.008-.016-.013-.025-.02l-.006-.005c-.008-.008-.016-.013-.025-.02l-.006-.005-.025-.02-.006-.005c-.008-.008-.016-.013-.025-.02l-.006-.005c-.008-.008-.016-.013-.025-.02l-.006-.005c-.008-.008-.016-.013-.025-.02l-.006-.005c-.008-.008-.016-.013-.025-.02l-.006-.005-.025-.02-.006-.005c-.008-.008-.016-.013-.025-.02l-.006-.005c-.008-.008-.016-.013-.025-.02l-.006-.005c-.008-.008-.016-.013-.025-.02l-.006-.005c-.008-.008-.016-.013-.025-.02l-.006-.005-.025-.02-.006-.005c-.008-.008-.016-.013-.025-.02l-.006-.005c-.008-.008-.016-.013-.025-.02l-.006-.005c-.008-.008-.016-.013-.025-.02l-.006-.005c-.008-.008-.016-.013-.025-.02l-.006-.005-.025-.02-.006-.005c-.008-.008-.016-.013-.025-.02l-.006-.005a1.144,1.144,0,0,0-.745-.274,1.114,1.114,0,0,0-.182.015l-6.629,1.069a1.148,1.148,0,0,0-.965,1.133v12.256l-.014-.01-.031-.025-.031-.025-.031-.025-.031-.025-.031-.025-.031-.025-.031-.025-.031-.025-.031-.025-.031-.025-.031-.025-.031-.025-.031-.025-.031-.025-.031-.025-.031-.025-.031-.025-.031-.025-.031-.025-.031-.025-.031-.025-.031-.025-.031-.025-.031-.025-.031-.025a9.277,9.277,0,0,0-2.877-1.542,16.523,16.523,0,0,0-5.264-.73c-.8,0-1.614.039-2.4.118-.189.019-.375.042-.562.062l-.03-.024-.031-.025-.031-.025-.031-.025-.031-.025-.031-.025-.031-.025L165.7,327l-.031-.025-.031-.025-.031-.025-.031-.025-.031-.025-.031-.025-.031-.025-.031-.025-.031-.025-.031-.025-.031-.025-.031-.025-.031-.025-.031-.025-.031-.025-.031-.025-.031-.025-.031-.025-.031-.025-.031-.025-.031-.025a1.151,1.151,0,0,0-.747-.277h-7.506a1.149,1.149,0,0,0-1.112.862c-.326,1.263-.694,2.641-1.1,4.1s-.824,2.946-1.267,4.465q-.313,1.077-.63,2.117c-.475-1.47-.927-2.924-1.342-4.321-.438-1.467-.821-2.838-1.14-4.075a1.148,1.148,0,0,0-.416-.626,28.374,28.374,0,0,1-.063-.05,37.783,37.783,0,0,1-.063-.05,68.073,68.073,0,0,1-.063-.05.305.305,0,0,0-.031-.025.317.317,0,0,0-.031-.025.3.3,0,0,0-.031-.025.31.31,0,0,0-.031-.025,48.609,48.609,0,0,1-.063-.05.308.308,0,0,0-.031-.025.3.3,0,0,0-.031-.025,170.1,170.1,0,0,1-.063-.05.313.313,0,0,0-.031-.025.3.3,0,0,0-.031-.025,48.609,48.609,0,0,0-.063-.05.3.3,0,0,0-.031-.025.311.311,0,0,0-.031-.025.3.3,0,0,0-.031-.025.312.312,0,0,0-.031-.025.306.306,0,0,0-.031-.025,28.339,28.339,0,0,0-.063-.05.3.3,0,0,0-.031-.025.31.31,0,0,0-.031-.025.3.3,0,0,0-.031-.025.313.313,0,0,0-.031-.025,28.339,28.339,0,0,1-.063-.05,26.187,26.187,0,0,1-.063-.05,170.068,170.068,0,0,0-.063-.05,85.089,85.089,0,0,0-.063-.05.32.32,0,0,0-.031-.025.3.3,0,0,0-.031-.025.3.3,0,0,0-.031-.025,340.529,340.529,0,0,1-.063-.05.31.31,0,0,0-.031-.025,170.219,170.219,0,0,0-.063-.05.3.3,0,0,0-.031-.025,113.44,113.44,0,0,1-.094-.076.3.3,0,0,0-.031-.025.3.3,0,0,0-.031-.025,340.553,340.553,0,0,1-.094-.076,22.691,22.691,0,0,1-.063-.05,170.068,170.068,0,0,1-.063-.05,340.529,340.529,0,0,0-.063-.05.312.312,0,0,0-.031-.025,28.339,28.339,0,0,1-.063-.05,37.816,37.816,0,0,1-.063-.05.312.312,0,0,0-.031-.025.308.308,0,0,0-.031-.025.313.313,0,0,0-.031-.025.3.3,0,0,0-.031-.025,20.017,20.017,0,0,0-.063-.05.316.316,0,0,0-.031-.025.3.3,0,0,0-.031-.025,68.073,68.073,0,0,1-.063-.05.3.3,0,0,0-.031-.025.312.312,0,0,0-.031-.025,34.012,34.012,0,0,1-.063-.05,37.816,37.816,0,0,0-.063-.05,340.553,340.553,0,0,1-.094-.076,42.5,42.5,0,0,1-.063-.05.3.3,0,0,0-.031-.025.306.306,0,0,0-.031-.025,1.147,1.147,0,0,0-.727-.26h-5.812l-.015-.011-.031-.025-.031-.025a.306.306,0,0,0-.031-.025l-.031-.025-.031-.025-.031-.025-.031-.025a.312.312,0,0,0-.031-.025l-.031-.025a.306.306,0,0,0-.031-.025l-.031-.025-.031-.025a1.277,1.277,0,0,0-.723-.288l-3.575-.247c-.035,0-.068,0-.1,0a1.253,1.253,0,0,0-1.268,1.17l-.016.244c-.069-.048-.136-.1-.205-.145a12.234,12.234,0,0,0-4.713-1.848,12.717,12.717,0,0,0-2.127-.179,14.428,14.428,0,0,0-3.264.389,13.474,13.474,0,0,0-4.882,2.182,12.511,12.511,0,0,0-3.431,3.74,13.1,13.1,0,0,0-1.675,4.931,15.815,15.815,0,0,0,.328,5.732,16.321,16.321,0,0,0,2.214,5.3,13.53,13.53,0,0,0,2.874,3.181l.031.025.031.025.031.025.03.025.031.025.031.025.031.025.031.025.031.025.031.025.031.025.031.025.03.025.031.025.031.025.031.025.031.025.03.025.031.025.031.025.031.025.031.025.031.025.031.025.031.025.031.025.03.025.031.025.031.025.031.025.031.025.03.025.031.025.031.025.031.025.031.025.03.025.031.025.031.025.031.025.03.025.031.025.031.025.031.025.031.025.03.025.031.025.031.025.031.025.031.025.03.025.031.025.031.025.031.025.031.025.031.025.031.025.031.025.031.025.03.025.031.025.031.025.031.025.031.025.03.025.031.025.031.025.031.025.031.025.031.025.031.025.031.025.031.025.03.025.031.025.031.025.031.025.031.025.03.025.031.025.031.025.031.025.031.025.031.025.031.025.031.025.031.025.03.025.031.025.031.025c.259.206.525.4.8.586a12.043,12.043,0,0,0,4.728,1.874,12.509,12.509,0,0,0,2.116.177,14.656,14.656,0,0,0,3.319-.4,13.807,13.807,0,0,0,5.018-2.216,12.039,12.039,0,0,0,3.411-3.77,12.566,12.566,0,0,0,1.538-4.7c1.244,2.912,2.5,5.621,3.74,8.084a6.8,6.8,0,0,1-1.327,2.041,2.943,2.943,0,0,1-2.184.711,10.213,10.213,0,0,1-1.665-.131,11.459,11.459,0,0,1-1.809-.488,1.147,1.147,0,0,0-1.5.839l-1.267,5.8a1.147,1.147,0,0,0,.424,1.156.3.3,0,0,0,.031.025.308.308,0,0,0,.031.025l.031.025a.3.3,0,0,0,.031.025.314.314,0,0,0,.031.025.306.306,0,0,0,.031.025l.031.025a.306.306,0,0,0,.031.025,48.609,48.609,0,0,0,.063.05.3.3,0,0,0,.031.025l.031.025a.3.3,0,0,0,.031.025.306.306,0,0,0,.031.025.3.3,0,0,0,.031.025,48.609,48.609,0,0,0,.063.05.3.3,0,0,0,.031.025,85.089,85.089,0,0,0,.063.05l.031.025a.3.3,0,0,0,.031.025,339.554,339.554,0,0,1,.063.05.31.31,0,0,0,.031.025l.031.025a.3.3,0,0,0,.031.025l.031.025a.3.3,0,0,0,.031.025.312.312,0,0,0,.031.025,42.5,42.5,0,0,1,.063.05l.031.025a.3.3,0,0,0,.031.025l.031.025a113.468,113.468,0,0,1,.063.05l.031.025a.306.306,0,0,0,.031.025l.031.025a37.816,37.816,0,0,0,.063.05.3.3,0,0,0,.031.025.31.31,0,0,0,.031.025l.031.025a170.068,170.068,0,0,0,.063.05.307.307,0,0,0,.031.025l.031.025a.307.307,0,0,0,.031.025,85.072,85.072,0,0,1,.063.05.307.307,0,0,0,.031.025l.031.025a.314.314,0,0,0,.031.025,85.072,85.072,0,0,1,.063.05.3.3,0,0,0,.031.025l.031.025a.308.308,0,0,0,.031.025,20.017,20.017,0,0,1,.063.05l.031.025a.312.312,0,0,0,.031.025.3.3,0,0,0,.031.025.308.308,0,0,0,.031.025.3.3,0,0,0,.031.025l.031.025a.313.313,0,0,0,.031.025.3.3,0,0,0,.031.025,170.1,170.1,0,0,1,.063.05l.031.025a.306.306,0,0,0,.031.025l.031.025a26.178,26.178,0,0,0,.063.05.311.311,0,0,0,.031.025.3.3,0,0,0,.031.025l.031.025a.306.306,0,0,0,.031.025l.031.025a.312.312,0,0,0,.031.025.306.306,0,0,0,.031.025,48.609,48.609,0,0,1,.063.05l.031.025a.312.312,0,0,0,.031.025.308.308,0,0,0,.031.025.3.3,0,0,0,.031.025,1.15,1.15,0,0,0,.283.172,15.036,15.036,0,0,0,2.562.77,15.989,15.989,0,0,0,3.4.343,13.653,13.653,0,0,0,3.917-.512,9.054,9.054,0,0,0,3.152-1.673,12.67,12.67,0,0,0,2.472-2.782,29.826,29.826,0,0,0,2.135-3.879q1.147-2.464,2.228-5.011c.036.03.072.062.109.091l.031.025.031.025.031.025.031.025.031.025.031.025.031.025.031.025.031.025.031.025.031.025.031.025.031.025.031.025.031.025.031.025.031.025.031.025.031.025.031.025.031.025.031.025.031.025.031.025.031.025.031.025.031.025.031.025.031.025.031.025.031.025.031.025.031.025.031.025.031.025.031.025.031.025.031.025.031.025.031.025.031.025.031.025.031.025.031.025.031.025.031.025.031.025.031.025.031.025.031.025.031.025.031.025.031.025.031.025.031.025.031.025.031.025.031.025.031.025.031.025.031.025.031.025.031.025.031.025.031.025.031.025.031.025.031.025.031.025.031.025.031.025.031.025.031.025.031.025.031.025.031.025.031.025.031.025.031.025.031.025.031.025.031.025.031.025.031.025.031.025.031.025.031.025.031.025.031.025.031.025c.132.1.267.2.408.3a10.139,10.139,0,0,0,3.585,1.487,20.79,20.79,0,0,0,4.36.425,39.548,39.548,0,0,0,6.328-.436c1.474-.247,2.64-.458,3.545-.645.038,0,.077.006.114.006h6.629a1.149,1.149,0,0,0,1.148-1.148V337c.155-.035.314-.068.477-.1a7.112,7.112,0,0,1,1.179-.127,14.762,14.762,0,0,1,.17,2.434v12.414a1.149,1.149,0,0,0,.436.9l.031.025.031.025.031.025.031.025.031.025.031.025.031.025.031.025.031.025.031.025.031.025.031.025.031.025.031.025.031.025.031.025.031.025.031.025.031.025.031.025.031.025.031.025.031.025.031.025.031.025.031.025.031.025.031.025.031.025.031.025.031.025.031.025.031.025.031.025.031.025.031.025.031.025.031.025.031.025.031.025.031.025.031.025.031.025.031.025.031.025.031.025.031.025.031.025.031.025.031.025.031.025.031.025.031.025.031.025.031.025.031.025.031.025.031.025.031.025.031.025.031.025.031.025.031.025.031.025.031.025.031.025.031.025.031.025.031.025.031.025.031.025.031.025.031.025.031.025.031.025.031.025.031.025.031.025.031.025.031.025.031.025.031.025.031.025.031.025.031.025.031.025.031.025.031.025.031.025.031.025a1.143,1.143,0,0,0,.742.273h.992a6.145,6.145,0,0,0,2.083,3.214l.031.025.031.025.031.025.03.025.031.025.031.025.031.025.031.025.031.025.031.025.031.025.031.025.031.025.031.025.031.025.031.025.031.025.03.025.031.025.031.025.031.025.031.025.03.025.031.025.031.025.031.025.031.025.031.025.031.025.031.025.031.025.03.025.031.025.031.025.031.025.031.025.03.025.031.025.031.025.031.025.031.025.031.025.031.025.031.025.031.025.031.025.031.025.031.025.031.025.031.025.03.025.031.025.031.025.031.025.031.025.031.025.031.025.031.025.031.025.031.025.031.025.031.025.031.025.031.025.03.025.031.025.031.025.031.025.031.025.031.025.031.025.031.025.031.025.031.025.031.025.031.025.031.025.031.025.03.025.031.025.031.025.031.025.031.025.03.025.031.025.031.025.031.025.031.025.031.025.031.025a5.438,5.438,0,0,0,3.431,1.23,5.924,5.924,0,0,0,5.707-6.108,6.25,6.25,0,0,0-2.331-4.919l-.031-.025-.031-.025-.031-.025-.031-.025-.031-.025-.031-.025-.031-.025-.031-.025,0,0,1.205.14a1.2,1.2,0,0,0,.133.008,1.149,1.149,0,0,0,1.111-.86c.691-2.668,1.308-5.333,1.836-7.923.532-2.611.981-5.482,1.336-8.532l1.166-10.045A1.127,1.127,0,0,0,214.476,322.466Zm-44.683,23.943a1.337,1.337,0,0,1,.538-.457,3.463,3.463,0,0,1,1.087-.312c.1-.014.2-.024.3-.035v.765c-.106.006-.218.014-.333.019-.509.025-1.05.039-1.608.043C169.785,346.425,169.789,346.416,169.792,346.409Zm-43.31-4.669a7.52,7.52,0,0,1,.068-4.507A3.086,3.086,0,0,1,128.9,335.3a4.047,4.047,0,0,1,.912-.112,2.917,2.917,0,0,1,.335.02,10.384,10.384,0,0,1,.906,2.526,7.883,7.883,0,0,1-.043,4.567,3,3,0,0,1-2.311,1.951,3.925,3.925,0,0,1-.893.109,2.9,2.9,0,0,1-.38-.026A10.122,10.122,0,0,1,126.483,341.74Z" transform="translate(82.755 -314.934)"/>
    <g id="logo_o_yah_" data-name="logo o&apos;yah!" transform="translate(196)">
      <g id="logo">
        <g id="Group_248" data-name="Group 248" transform="translate(0 0)">
          <g id="Group_241" data-name="Group 241" transform="translate(63.877)">
            <path id="Path_213" data-name="Path 213" d="M635.143,352.009a.573.573,0,0,1-.574-.574V339.022a8.7,8.7,0,0,0-.738-4.238,2.75,2.75,0,0,0-2.56-1.06,7.908,7.908,0,0,0-1.555.145c-.331.065-.646.136-.941.211v17.356a.573.573,0,0,1-.573.574h-6.629a.573.573,0,0,1-.574-.574V317.5a.573.573,0,0,1,.483-.566l6.629-1.069a.572.572,0,0,1,.464.13.573.573,0,0,1,.2.437V327.36c.309-.078.654-.152,1.031-.224a11.281,11.281,0,0,1,2.132-.21,13.163,13.163,0,0,1,4.957.821,7.949,7.949,0,0,1,3.255,2.375,9.108,9.108,0,0,1,1.711,3.606,19.43,19.43,0,0,1,.483,4.493v13.212a.573.573,0,0,1-.574.574h-6.63Z" transform="translate(-620.427 -315.286)" fill="#f2f2f2"/>
            <path id="Path_214" data-name="Path 214" d="M624.216,312.448v11.688a13.762,13.762,0,0,1,1.713-.421,10.661,10.661,0,0,1,2.024-.2,12.532,12.532,0,0,1,4.738.779,7.351,7.351,0,0,1,3.025,2.2,8.517,8.517,0,0,1,1.6,3.381,18.791,18.791,0,0,1,.467,4.361V347.45h-6.629V335.035a9.153,9.153,0,0,0-.823-4.538,3.292,3.292,0,0,0-3.048-1.333,8.351,8.351,0,0,0-1.668.156q-.779.155-1.4.333v17.8h-6.629V313.516l6.629-1.068m0-1.148a1.114,1.114,0,0,0-.182.015l-6.629,1.069a1.147,1.147,0,0,0-.965,1.133v33.931a1.149,1.149,0,0,0,1.148,1.148h6.629a1.149,1.149,0,0,0,1.148-1.148v-16.9c.155-.035.313-.068.477-.1a7.3,7.3,0,0,1,1.445-.133c1.584,0,1.951.594,2.072.789.3.482.652,1.557.652,3.935v12.414a1.149,1.149,0,0,0,1.148,1.148h6.629a1.149,1.149,0,0,0,1.148-1.148V334.235a20.038,20.038,0,0,0-.5-4.628,9.681,9.681,0,0,0-1.82-3.83,8.516,8.516,0,0,0-3.485-2.548,13.717,13.717,0,0,0-5.176-.865,11.819,11.819,0,0,0-2.242.221c-.119.023-.235.045-.347.069V312.447a1.149,1.149,0,0,0-.4-.874,1.17,1.17,0,0,0-.748-.273Z" transform="translate(-616.44 -311.3)"/>
          </g>
          <g id="Group_242" data-name="Group 242" transform="translate(84.759 3.24)">
            <path id="Path_215" data-name="Path 215" d="M794.028,370.149a.593.593,0,0,1-.067,0l-6.4-.742a.575.575,0,0,1-.508-.557c-.062-2.745-.063-5.472,0-8.1s.269-5.523.623-8.57l1.166-10.045a.575.575,0,0,1,.57-.508.6.6,0,0,1,.067,0l8.923,1.035a.575.575,0,0,1,.5.636l-1.166,10.045c-.352,3.034-.8,5.888-1.328,8.484-.526,2.58-1.141,5.236-1.829,7.894A.575.575,0,0,1,794.028,370.149Z" transform="translate(-786.435 -341.046)" fill="#f1c508"/>
            <path id="Path_216" data-name="Path 216" d="M785.432,338.208l8.923,1.035-1.166,10.045q-.528,4.545-1.321,8.435t-1.823,7.865l-6.4-.742q-.093-4.1,0-8.077t.619-8.517l1.167-10.045m0-1.148a1.147,1.147,0,0,0-1.138,1.016l-1.166,10.045c-.356,3.063-.566,5.965-.626,8.624-.062,2.64-.062,5.375,0,8.128a1.148,1.148,0,0,0,1.015,1.114l6.4.742a1.209,1.209,0,0,0,.133.008,1.149,1.149,0,0,0,1.111-.86c.691-2.667,1.308-5.333,1.836-7.923.532-2.611.981-5.482,1.336-8.532l1.166-10.045a1.148,1.148,0,0,0-1.008-1.273l-8.923-1.035a1.032,1.032,0,0,0-.136-.009Z" transform="translate(-782.454 -337.06)"/>
          </g>
          <g id="Group_243" data-name="Group 243" transform="translate(23.226 10.739)">
            <path id="Path_217" data-name="Path 217" d="M303.892,437.03a15.367,15.367,0,0,1-3.27-.33,14.482,14.482,0,0,1-2.465-.738.573.573,0,0,1-.338-.652l1.265-5.8a.576.576,0,0,1,.75-.42,11.981,11.981,0,0,0,1.9.513,10.765,10.765,0,0,0,1.757.138,3.483,3.483,0,0,0,2.59-.879,7.628,7.628,0,0,0,1.555-2.467c-1.619-3.19-3.258-6.8-4.872-10.743a137.444,137.444,0,0,1-4.7-13.673.573.573,0,0,1,.551-.733h7.7a.574.574,0,0,1,.556.431c.319,1.243.7,2.62,1.145,4.1.429,1.441.9,2.945,1.39,4.469.486,1.5.985,2.975,1.487,4.392.3.843.592,1.653.88,2.423.26-.76.527-1.565.8-2.406.445-1.39.9-2.869,1.34-4.394s.87-3.025,1.269-4.473.772-2.843,1.1-4.107a.573.573,0,0,1,.556-.43h7.506a.574.574,0,0,1,.551.737c-1.467,4.942-3.016,9.625-4.6,13.918-1.592,4.313-3.357,8.556-5.244,12.611a29.285,29.285,0,0,1-2.092,3.8,12.117,12.117,0,0,1-2.358,2.658,8.507,8.507,0,0,1-2.955,1.567A13.14,13.14,0,0,1,303.892,437.03Z" transform="translate(-297.232 -400.675)" fill="#f2f2f2"/>
            <path id="Path_218" data-name="Path 218" d="M320.369,397.827q-2.2,7.4-4.591,13.883t-5.226,12.568a28.574,28.574,0,0,1-2.048,3.727,11.48,11.48,0,0,1-2.245,2.532A7.891,7.891,0,0,1,303.5,432a12.441,12.441,0,0,1-3.585.463,14.8,14.8,0,0,1-3.147-.316,14.058,14.058,0,0,1-2.365-.707l1.265-5.8a12.453,12.453,0,0,0,2,.537,11.335,11.335,0,0,0,1.853.146,4.053,4.053,0,0,0,3-1.048,8.423,8.423,0,0,0,1.78-2.9q-2.487-4.872-4.971-10.934a136.243,136.243,0,0,1-4.678-13.616h7.7q.489,1.9,1.151,4.117t1.394,4.482q.734,2.266,1.492,4.407t1.444,3.9q.634-1.753,1.321-3.9t1.345-4.407q.66-2.266,1.272-4.482t1.1-4.117h7.5m0-1.148h-7.505a1.149,1.149,0,0,0-1.112.862c-.326,1.262-.694,2.64-1.1,4.1s-.825,2.948-1.267,4.465-.892,2.992-1.336,4.379c-.092.287-.184.571-.274.849q-.157-.434-.314-.882c-.5-1.415-1-2.888-1.482-4.379-.492-1.517-.957-3.016-1.385-4.455-.438-1.468-.821-2.839-1.14-4.075a1.148,1.148,0,0,0-1.112-.862h-7.7a1.149,1.149,0,0,0-1.1,1.469,138.275,138.275,0,0,0,4.718,13.731c1.58,3.857,3.184,7.4,4.77,10.544a6.8,6.8,0,0,1-1.327,2.041,2.948,2.948,0,0,1-2.184.711,10.22,10.22,0,0,1-1.665-.131,11.464,11.464,0,0,1-1.809-.488,1.147,1.147,0,0,0-1.5.839l-1.265,5.8a1.148,1.148,0,0,0,.675,1.3,15.037,15.037,0,0,0,2.562.77,15.991,15.991,0,0,0,3.4.343,13.654,13.654,0,0,0,3.917-.512,9.053,9.053,0,0,0,3.152-1.673,12.67,12.67,0,0,0,2.472-2.782,29.914,29.914,0,0,0,2.135-3.879c1.894-4.07,3.665-8.328,5.263-12.656,1.591-4.3,3.143-9,4.615-13.953a1.146,1.146,0,0,0-1.1-1.474Z" transform="translate(-293.258 -396.68)"/>
          </g>
          <g id="Group_244" data-name="Group 244" transform="translate(43.832 11.563)">
            <path id="Path_219" data-name="Path 219" d="M472.28,433.461a20.122,20.122,0,0,1-4.236-.413,9.577,9.577,0,0,1-3.384-1.4,6.59,6.59,0,0,1-2.24-2.6,8.82,8.82,0,0,1-.77-3.854,7.417,7.417,0,0,1,.9-3.757,6.906,6.906,0,0,1,2.4-2.47,10.556,10.556,0,0,1,3.34-1.3,18.34,18.34,0,0,1,3.812-.391,21.6,21.6,0,0,1,2.355.114c.366.042.693.088.986.141a3.057,3.057,0,0,0-.854-2.213,4.481,4.481,0,0,0-3.153-.854,22.462,22.462,0,0,0-3.253.238,13.878,13.878,0,0,0-2.732.662.575.575,0,0,1-.766-.449l-.845-5.34a.574.574,0,0,1,.4-.639c.394-.121.879-.248,1.484-.389.586-.135,1.236-.257,1.935-.364s1.443-.2,2.189-.27c.77-.077,1.56-.114,2.347-.114a15.953,15.953,0,0,1,5.079.7,8.2,8.2,0,0,1,3.367,2.06,7.66,7.66,0,0,1,1.8,3.268,15.58,15.58,0,0,1,.509,4.113v13.793a.574.574,0,0,1-.452.561c-.951.208-2.255.45-3.987.74A39.3,39.3,0,0,1,472.28,433.461Zm1.068-10.589a12.712,12.712,0,0,0-1.682.106,4.049,4.049,0,0,0-1.264.367,1.893,1.893,0,0,0-.758.65,1.786,1.786,0,0,0-.26,1.016,1.732,1.732,0,0,0,.757,1.66,5.252,5.252,0,0,0,2.584.525c.639,0,1.258-.015,1.84-.044q.5-.025.879-.064v-4.044c-.2-.029-.426-.059-.691-.088A13.363,13.363,0,0,0,473.348,422.873Z" transform="translate(-461.075 -407.225)" fill="#f2f2f2"/>
            <path id="Path_220" data-name="Path 220" d="M468.2,404.377a15.345,15.345,0,0,1,4.894.668,7.594,7.594,0,0,1,3.136,1.912,7.052,7.052,0,0,1,1.669,3.025,14.952,14.952,0,0,1,.489,3.96v13.793q-1.425.311-3.96.735a38.221,38.221,0,0,1-6.139.421,19.566,19.566,0,0,1-4.116-.4,8.973,8.973,0,0,1-3.181-1.312,6.007,6.007,0,0,1-2.047-2.381,8.22,8.22,0,0,1-.712-3.6,6.815,6.815,0,0,1,.824-3.469,6.329,6.329,0,0,1,2.2-2.269,9.94,9.94,0,0,1,3.158-1.223,17.674,17.674,0,0,1,3.693-.379,21.3,21.3,0,0,1,2.292.111,10.3,10.3,0,0,1,1.624.288v-.621A3.672,3.672,0,0,0,471,410.919a4.96,4.96,0,0,0-3.56-1.023,22.781,22.781,0,0,0-3.337.244,14.5,14.5,0,0,0-2.848.691l-.845-5.34q.577-.177,1.446-.379c.579-.133,1.208-.252,1.891-.356s1.4-.192,2.157-.267,1.52-.113,2.291-.113m.533,19.4q.979,0,1.869-.045a12.885,12.885,0,0,0,1.424-.133v-5.029c-.267-.058-.668-.118-1.2-.177a13.713,13.713,0,0,0-1.468-.088,13.363,13.363,0,0,0-1.758.111,4.593,4.593,0,0,0-1.445.423,2.468,2.468,0,0,0-.979.847,2.348,2.348,0,0,0-.356,1.333,2.274,2.274,0,0,0,1.045,2.158,5.778,5.778,0,0,0,2.869.6M468.2,403.23c-.805,0-1.614.039-2.4.118-.755.073-1.5.165-2.216.273s-1.379.234-1.976.372c-.623.145-1.121.275-1.526.4a1.147,1.147,0,0,0-.8,1.277l.845,5.34a1.146,1.146,0,0,0,1.531.9,13.391,13.391,0,0,1,2.62-.633,21.783,21.783,0,0,1,3.166-.231c1.7,0,2.434.374,2.748.687a2.251,2.251,0,0,1,.606,1.127c-.087-.011-.176-.021-.267-.031a22.516,22.516,0,0,0-2.42-.118,18.9,18.9,0,0,0-3.932.4,11.109,11.109,0,0,0-3.519,1.367,7.493,7.493,0,0,0-2.6,2.674,7.982,7.982,0,0,0-.977,4.044,9.365,9.365,0,0,0,.828,4.1,7.166,7.166,0,0,0,2.431,2.829,10.14,10.14,0,0,0,3.585,1.487,20.79,20.79,0,0,0,4.36.425,39.385,39.385,0,0,0,6.328-.438c1.743-.292,3.057-.535,4.016-.745a1.149,1.149,0,0,0,.9-1.122V413.943a16.188,16.188,0,0,0-.53-4.264,8.235,8.235,0,0,0-1.942-3.511,8.764,8.764,0,0,0-3.6-2.21,16.548,16.548,0,0,0-5.263-.728Zm.533,19.4a4.726,4.726,0,0,1-2.3-.448c-.141-.081-.47-.27-.47-1.164a1.25,1.25,0,0,1,.162-.7,1.337,1.337,0,0,1,.538-.457,3.46,3.46,0,0,1,1.087-.312,12.126,12.126,0,0,1,1.6-.1,12.525,12.525,0,0,1,1.343.082l.177.02v3.013c-.106.006-.218.014-.333.019-.571.028-1.18.043-1.81.043Z" transform="translate(-457.08 -403.23)"/>
          </g>
          <g id="Group_245" data-name="Group 245" transform="translate(0 9.132)">
            <path id="Path_221" data-name="Path 221" d="M125.756,415.383a11.922,11.922,0,0,1-2.02-.17,11.448,11.448,0,0,1-4.5-1.785,12.624,12.624,0,0,1-3.482-3.581,15.728,15.728,0,0,1-2.135-5.117,15.237,15.237,0,0,1-.319-5.523,12.531,12.531,0,0,1,1.6-4.717,11.909,11.909,0,0,1,3.274-3.567,12.912,12.912,0,0,1,4.677-2.089,13.858,13.858,0,0,1,3.133-.374,12.066,12.066,0,0,1,2.029.17,11.681,11.681,0,0,1,4.5,1.761,12.439,12.439,0,0,1,3.474,3.536,15.562,15.562,0,0,1,2.131,5.1,16.551,16.551,0,0,1,.394,5.513,12.06,12.06,0,0,1-1.5,4.751,11.479,11.479,0,0,1-3.25,3.591,13.232,13.232,0,0,1-4.81,2.121A14.044,14.044,0,0,1,125.756,415.383Zm-.257-19.771a4.616,4.616,0,0,0-1.043.127,3.661,3.661,0,0,0-2.756,2.275,8.077,8.077,0,0,0-.1,4.854,8.3,8.3,0,0,0,2.246,4.361,3.532,3.532,0,0,0,2.459.989h0a4.507,4.507,0,0,0,1.024-.124,3.574,3.574,0,0,0,2.717-2.3,8.425,8.425,0,0,0,.067-4.9,8.2,8.2,0,0,0-2.213-4.321A3.466,3.466,0,0,0,125.5,395.612Z" transform="translate(-112.6 -387.886)" fill="#f2f2f2"/>
            <path id="Path_222" data-name="Path 222" d="M121.989,385.047a11.443,11.443,0,0,1,1.932.162,11.041,11.041,0,0,1,4.274,1.674,11.812,11.812,0,0,1,3.313,3.375,14.928,14.928,0,0,1,2.049,4.911,15.907,15.907,0,0,1,.382,5.321,11.455,11.455,0,0,1-1.425,4.527,10.871,10.871,0,0,1-3.089,3.413,12.637,12.637,0,0,1-4.6,2.028,13.44,13.44,0,0,1-3.058.367,11.4,11.4,0,0,1-1.922-.161,10.838,10.838,0,0,1-4.28-1.7,12,12,0,0,1-3.322-3.42,15.109,15.109,0,0,1-2.054-4.932,14.607,14.607,0,0,1-.309-5.316,11.9,11.9,0,0,1,1.526-4.5,11.3,11.3,0,0,1,3.117-3.4,12.267,12.267,0,0,1,4.469-1.994,13.078,13.078,0,0,1,3-.361m.331,19.759a5.057,5.057,0,0,0,1.153-.14,4.143,4.143,0,0,0,3.122-2.658,8.924,8.924,0,0,0,.091-5.24,8.711,8.711,0,0,0-2.386-4.618,4.053,4.053,0,0,0-2.791-1.1,5.168,5.168,0,0,0-1.172.142,4.235,4.235,0,0,0-3.156,2.618,8.586,8.586,0,0,0-.123,5.2,8.792,8.792,0,0,0,2.42,4.655,4.107,4.107,0,0,0,2.843,1.14m-.331-20.907h0a14.426,14.426,0,0,0-3.264.389,13.473,13.473,0,0,0-4.882,2.182,12.51,12.51,0,0,0-3.431,3.74,13.1,13.1,0,0,0-1.675,4.931,15.787,15.787,0,0,0,.328,5.732,16.321,16.321,0,0,0,2.214,5.3,13.191,13.191,0,0,0,3.64,3.742,12.042,12.042,0,0,0,4.728,1.874,12.508,12.508,0,0,0,2.116.177,14.657,14.657,0,0,0,3.319-.4,13.807,13.807,0,0,0,5.017-2.216,12.039,12.039,0,0,0,3.411-3.77,12.666,12.666,0,0,0,1.571-4.975,17.089,17.089,0,0,0-.405-5.7,16.126,16.126,0,0,0-2.211-5.284,13,13,0,0,0-3.635-3.7,12.234,12.234,0,0,0-4.713-1.848,12.731,12.731,0,0,0-2.128-.177Zm.331,19.758a2.984,2.984,0,0,1-2.074-.84,7.75,7.75,0,0,1-2.073-4.067,7.52,7.52,0,0,1,.068-4.507,3.086,3.086,0,0,1,2.353-1.933,4.038,4.038,0,0,1,.912-.112,2.919,2.919,0,0,1,2.024.805,7.649,7.649,0,0,1,2.036,4.024,7.871,7.871,0,0,1-.044,4.567,3,3,0,0,1-2.311,1.951,3.778,3.778,0,0,1-.892.112Z" transform="translate(-108.607 -383.9)"/>
          </g>
          <g id="Group_247" data-name="Group 247" transform="translate(20.006 9.888)">
            <g id="Group_246" data-name="Group 246">
              <path id="Path_223" data-name="Path 223" d="M274.892,402.32c-.086,0-.174,0-.263-.009l-1.76-.121a.7.7,0,0,1-.662-.76l.083-1.21a.677.677,0,0,1,.7-.636.518.518,0,0,1,.062,0l.99.068c.036,0,.072,0,.1,0s.045,0,.062,0c0-.025.009-.059.011-.1l.006-.087-1.16-.08a.7.7,0,0,1-.491-.24.713.713,0,0,1-.171-.518l.243-3.519a.677.677,0,0,1,.7-.636l.062,0,3.575.247a.677.677,0,0,1,.635.73l-.321,4.648A2.221,2.221,0,0,1,274.892,402.32Z" transform="translate(-271.633 -393.896)" fill="#f1c508"/>
              <path id="Path_224" data-name="Path 224" d="M269.362,391.058h.023l3.575.247a.1.1,0,0,1,.1.117l-.321,4.646a1.658,1.658,0,0,1-1.826,1.691q-.109,0-.223-.008l-1.76-.121a.131.131,0,0,1-.128-.147l.083-1.21c.005-.074.053-.1.123-.1h.023l.99.068c.052,0,.1.005.145.005.464,0,.615-.19.645-.641l.045-.66-1.732-.119a.131.131,0,0,1-.128-.147l.243-3.519c0-.074.052-.1.122-.1m0-1.148a1.253,1.253,0,0,0-1.268,1.17l-.243,3.519a1.292,1.292,0,0,0,.221.825,1.249,1.249,0,0,0-.332.77l-.083,1.21a1.272,1.272,0,0,0,1.194,1.371l1.76.121c.1.008.2.01.3.01a2.785,2.785,0,0,0,2.972-2.758l.321-4.646a1.245,1.245,0,0,0-1.169-1.342l-3.575-.246-.1,0Z" transform="translate(-267.655 -389.91)"/>
            </g>
          </g>
        </g>
        <g id="Group_250" data-name="Group 250" transform="translate(82.182 31.783)">
          <path id="Path_225" data-name="Path 225" d="M771.672,579.609a5.55,5.55,0,1,1,5.132-5.534A5.351,5.351,0,0,1,771.672,579.609Z" transform="translate(-765.965 -567.966)" fill="#f2f2f2"/>
          <g id="Group_249" data-name="Group 249">
            <path id="Path_226" data-name="Path 226" d="M767.677,565.128a4.977,4.977,0,1,1-4.558,4.96,4.771,4.771,0,0,1,4.558-4.96m0-1.148a6.122,6.122,0,1,0,5.707,6.108,5.924,5.924,0,0,0-5.707-6.108Z" transform="translate(-761.97 -563.98)"/>
          </g>
        </g>
      </g>
    </g>
  </g>
</svg>
