<svg id="_001-twitter-logo-silhouette" data-name="001-twitter-logo-silhouette" xmlns="http://www.w3.org/2000/svg" width="23.131" height="18.789" viewBox="0 0 23.131 18.789">
  <g id="Group_25" data-name="Group 25" transform="translate(0 0)">
    <path id="Path_69" data-name="Path 69" d="M23.132,59.664a9.476,9.476,0,0,1-2.725.747,4.765,4.765,0,0,0,2.086-2.623,9.567,9.567,0,0,1-3.015,1.152,4.749,4.749,0,0,0-8.086,4.326,13.472,13.472,0,0,1-9.78-4.958,4.751,4.751,0,0,0,1.469,6.334,4.745,4.745,0,0,1-2.149-.6v.059a4.75,4.75,0,0,0,3.806,4.653,4.806,4.806,0,0,1-1.25.166,4.554,4.554,0,0,1-.893-.088,4.748,4.748,0,0,0,4.432,3.3A9.52,9.52,0,0,1,1.133,74.16,10.085,10.085,0,0,1,0,74.1,13.413,13.413,0,0,0,7.274,76.23a13.407,13.407,0,0,0,13.5-13.5l-.016-.614A9.475,9.475,0,0,0,23.132,59.664Z" transform="translate(-0.001 -57.441)" fill="#c5c5c5"/>
  </g>
</svg>
