<svg id="_005-youtube" data-name="005-youtube" xmlns="http://www.w3.org/2000/svg" width="24.401" height="16.775" viewBox="0 0 24.401 16.775">
  <g id="Group_32" data-name="Group 32" transform="translate(0 0)">
    <path id="Path_73" data-name="Path 73" d="M23.363,81.617c-.662-1.177-1.38-1.394-2.843-1.476-1.461-.1-5.135-.14-8.318-.14s-6.864.041-8.324.139-2.179.3-2.847,1.478S0,84.818,0,88.383V88.4c0,3.55.351,5.591,1.032,6.754s1.386,1.391,2.846,1.49,5.136.136,8.325.136,6.857-.05,8.319-.134c1.463-.1,2.181-.313,2.843-1.49.688-1.164,1.035-3.2,1.035-6.754v-.012C24.4,84.818,24.053,82.792,23.363,81.617ZM9.15,92.963v-9.15l7.625,4.575Z" transform="translate(0 -80)" fill="#c5c5c5"/>
  </g>
</svg>
